Coordinates
version=1
nRows=9
nColumns=63
inDegrees=yes

Units are S.I. units (second, meters, Newtons, ...)
If the header above contains a line with 'inDegrees', this indicates whether rotational values are in degrees (yes) or radians (no).

endheader
time	pelvis_tilt	pelvis_list	pelvis_rotation	pelvis_tx	pelvis_ty	pelvis_tz	hip_flexion_r	hip_adduction_r	hip_rotation_r	knee_angle_r	knee_angle_r_beta	ankle_angle_r	subtalar_angle_r	mtp_angle_r	hip_flexion_l	hip_adduction_l	hip_rotation_l	knee_angle_l	knee_angle_l_beta	ankle_angle_l	subtalar_angle_l	mtp_angle_l	L5_S1_Flex_Ext	L5_S1_Lat_Bending	L5_S1_axial_rotation	L4_L5_Flex_Ext	L4_L5_Lat_Bending	L4_L5_axial_rotation	L3_L4_Flex_Ext	L3_L4_Lat_Bending	L3_L4_axial_rotation	L2_L3_Flex_Ext	L2_L3_Lat_Bending	L2_L3_axial_rotation	L1_L2_Flex_Ext	L1_L2_Lat_Bending	L1_L2_axial_rotation	L1_T12_Flex_Ext	L1_T12_Lat_Bending	L1_T12_axial_rotation	Abs_r3	Abs_r2	Abs_r1	Abs_t1	Abs_t2	neck_flexion	neck_bending	neck_rotation	arm_flex_r	arm_add_r	arm_rot_r	elbow_flex_r	pro_sup_r	wrist_flex_r	wrist_dev_r	arm_flex_l	arm_add_l	arm_rot_l	elbow_flex_l	pro_sup_l	wrist_flex_l	wrist_dev_l
0.000000	-4.822626	-4.363276	82.452988	0.341152	0.991757	0.379545	-1.801125	-0.524862	11.660718	1.327376	0.023167	22.675321	-11.433291	0.000000	4.964877	0.009058	0.007897	13.027701	0.227376	30.844327	-6.779420	0.000000	0.156180	-0.263750	1.671993	0.290042	-0.350788	1.776492	0.256588	-0.641283	1.776492	0.178498	-0.641283	1.462994	0.145029	-0.537840	1.358494	0.089241	-0.408549	1.253995	1.115578	-2.983597	9.299123	0.000000	0.000000	26.940015	2.258970	-7.794226	11.675920	-15.266663	52.171795	57.941095	89.291157	21.112559	11.133645	16.957600	-16.426115	58.906969	60.804604	68.447840	10.294483	12.148394
0.016949	-4.883776	-4.448343	82.495161	0.341022	0.991845	0.379488	-1.715137	-0.606283	9.491658	1.497204	0.026131	22.965402	-8.907353	0.000000	5.542358	0.192037	1.121365	13.926715	0.243067	31.468541	-7.636541	0.000000	0.164870	-0.264154	1.569900	0.306180	-0.351325	1.668019	0.270865	-0.642264	1.668019	0.188430	-0.642264	1.373662	0.153098	-0.538663	1.275544	0.094207	-0.409175	1.177425	1.177648	-2.988163	8.731312	0.000000	0.000000	26.956741	2.028655	-7.284550	11.496451	-14.871433	51.812135	57.435161	89.153672	21.198072	10.519631	16.328621	-16.860231	58.555302	61.584058	64.042481	8.743135	12.514228
0.033898	-4.922277	-4.506372	82.534708	0.340901	0.992023	0.379337	-1.651767	-0.662903	7.846538	1.638999	0.028606	23.190431	-6.996891	0.000000	5.981003	0.326886	1.978206	14.629611	0.255335	31.947035	-8.289314	0.000000	0.171680	-0.263144	1.478363	0.318826	-0.349981	1.570761	0.282053	-0.639807	1.570761	0.196213	-0.639807	1.293568	0.159422	-0.536602	1.201170	0.098098	-0.407609	1.108773	1.226291	-2.976733	8.222214	0.000000	0.000000	26.958929	1.870468	-6.838778	11.451590	-14.536679	51.824191	56.903559	89.052868	21.076178	9.976628	15.782343	-17.179155	58.384563	62.073758	60.746553	7.211750	12.437809
0.050847	-4.940460	-4.541230	82.571458	0.340787	0.992275	0.379111	-1.606552	-0.696967	6.674452	1.756548	0.030658	23.356780	-5.642561	0.000000	6.295022	0.418221	2.602073	15.153969	0.264487	32.292975	-8.758109	0.000000	0.176847	-0.260922	1.397446	0.328422	-0.347026	1.484787	0.290542	-0.634406	1.484787	0.202118	-0.634406	1.222765	0.164220	-0.532072	1.135425	0.101050	-0.404168	1.048085	1.263200	-2.951603	7.772176	0.000000	0.000000	26.948614	1.774960	-6.458952	11.524430	-14.257455	52.171064	56.350985	88.984278	20.757474	9.489143	15.315255	-17.393377	58.378451	62.303622	58.442813	5.715433	11.979403
0.067797	-4.940655	-4.556781	82.605241	0.340679	0.992589	0.378826	-1.575025	-0.710721	5.924496	1.853636	0.032352	23.470826	-4.785023	0.000000	6.498627	0.470658	3.016620	15.517363	0.270829	32.519526	-9.063294	0.000000	0.180609	-0.257693	1.327211	0.335409	-0.342732	1.410161	0.296722	-0.626555	1.410161	0.206418	-0.626555	1.161309	0.167713	-0.525487	1.078359	0.103200	-0.399166	0.995408	1.290071	-2.915074	7.381547	0.000000	0.000000	26.927837	1.732680	-6.147116	11.698063	-14.028813	52.815852	55.782133	88.943436	20.252557	9.041682	14.923845	-17.513383	58.520663	62.303563	57.014018	4.269290	11.199272
0.084746	-4.925191	-4.556891	82.635887	0.340573	0.992953	0.378502	-1.552722	-0.706410	5.545765	1.934047	0.033755	23.538943	-4.364935	0.000000	6.606027	0.488811	3.245499	15.737372	0.274669	32.639853	-9.225241	0.000000	0.183202	-0.253659	1.267719	0.340225	-0.337367	1.346952	0.300983	-0.616747	1.346952	0.209382	-0.616747	1.109254	0.170122	-0.517262	1.030022	0.104682	-0.392918	0.950789	1.308597	-2.869443	7.050674	0.000000	0.000000	26.898634	1.734176	-5.905311	11.955581	-13.845806	53.721653	55.201697	88.925875	19.572023	8.618752	14.604601	-17.549662	58.794896	62.103498	56.342926	2.888425	10.157682
0.101695	-4.896399	-4.545425	82.663224	0.340467	0.993352	0.378157	-1.535176	-0.686279	5.487354	2.001568	0.034934	23.567506	-4.322955	0.000000	6.631433	0.477297	3.312363	15.831573	0.276313	32.667121	-9.264317	0.000000	0.184865	-0.249024	1.219035	0.343313	-0.331202	1.295224	0.303715	-0.605477	1.295224	0.211282	-0.605477	1.066655	0.171666	-0.507810	0.990466	0.105632	-0.385738	0.914276	1.320473	-2.817010	6.779906	0.000000	0.000000	26.863043	1.769999	-5.735580	12.280075	-13.703487	54.851566	54.614372	88.927129	18.726469	8.204858	14.354012	-17.512703	59.184849	61.733341	56.312294	1.587943	8.914897
0.118644	-4.856609	-4.526248	82.687082	0.340359	0.993775	0.377808	-1.517922	-0.652575	5.698359	2.059984	0.035953	23.562890	-4.599741	0.000000	6.589055	0.440730	3.240865	15.817542	0.276068	32.614495	-9.200893	0.000000	0.185834	-0.243991	1.181220	0.345112	-0.324508	1.255046	0.305307	-0.593239	1.255046	0.212390	-0.593239	1.033567	0.172565	-0.497546	0.959741	0.106186	-0.377942	0.885915	1.327394	-2.760072	6.569590	0.000000	0.000000	26.823102	1.830699	-5.639965	12.654638	-13.596910	56.168690	54.024852	88.942733	17.726492	7.784507	14.168566	-17.412994	59.674218	61.223010	56.804879	0.382950	7.531181
0.135593	-4.808151	-4.503225	82.707291	0.340246	0.994207	0.377475	-1.496496	-0.607541	6.127875	2.113080	0.036880	23.531469	-5.135951	0.000000	6.493103	0.383727	3.054658	15.712858	0.274241	32.495141	-9.055337	0.000000	0.186346	-0.238763	1.154337	0.346064	-0.317554	1.226483	0.306148	-0.580527	1.226483	0.212975	-0.580527	1.010045	0.173041	-0.486885	0.937899	0.106478	-0.369843	0.865753	1.331053	-2.700930	6.420075	0.000000	0.000000	26.780850	1.906824	-5.620509	13.062362	-13.521127	57.636124	53.437832	88.968219	16.582687	7.342206	14.044750	-17.261023	60.246702	60.602418	57.703440	-0.711449	6.066798
